<svg id="レイヤー_1" data-name="レイヤー 1" xmlns="http://www.w3.org/2000/svg" viewBox="0 0 76 75"><defs><style>.cls-1{fill:#101987;}.cls-2{fill:#fff;}</style></defs><title>logo-glory</title><rect class="cls-1" width="76" height="75"/><path id="GLORY" class="cls-2" d="M53.62,39.65l1.4-.84a.7.7,0,0,0,.34-.6V35.4a.7.7,0,0,0-.21-.5l-1.38-1.36a.7.7,0,0,0-.49-.2H46a.69.69,0,0,0-.46.18l-1.16,1.07h0a.69.69,0,0,0-.22.51v7.55h2.55V39.87h3.55l2.68,2.79H56a.19.19,0,0,0,.2-.19h0a.19.19,0,0,0,0-.13Zm-.94-1.88h-6V35.44h6a.28.28,0,0,1,.28.28h0v1.77A.28.28,0,0,1,52.68,37.77Zm16.69-4.1-5.65,5.44v3.55h-3V39.11l-5.65-5.43a.2.2,0,0,1,.14-.33h3.38l3.49,3.45a.2.2,0,0,0,.28,0l3.5-3.45h3.38a.19.19,0,0,1,.15.32ZM24.49,40.33h6.09v2.33H23.22a.7.7,0,0,1-.5-.21l-1.14-1.17a.7.7,0,0,1-.2-.49V33.34h2.84v6.71A.28.28,0,0,0,24.49,40.33ZM12.75,37h7.48v3.81a.7.7,0,0,1-.2.49l-1.14,1.17a.7.7,0,0,1-.5.21H9.66a.7.7,0,0,1-.5-.21L8,41.28a.7.7,0,0,1-.2-.49V35.11A.69.69,0,0,1,8,34.6l1.16-1.07a.7.7,0,0,1,.47-.18h9.45v2.09H10.78a.28.28,0,0,0-.28.28v4.57a.28.28,0,0,0,.28.28h6.57a.28.28,0,0,0,.28-.28V39H12.75Zm28.88-3.46a.7.7,0,0,0-.47-.18h-8a.7.7,0,0,0-.46.18L31.54,34.6a.69.69,0,0,0-.22.51v5.68a.7.7,0,0,0,.2.49l1.14,1.17a.7.7,0,0,0,.5.21h8a.69.69,0,0,0,.5-.21l1.14-1.17a.7.7,0,0,0,.2-.49V35.1a.69.69,0,0,0-.22-.51Zm-1.31,6.53a.28.28,0,0,1-.28.28H34.28a.28.28,0,0,1-.28-.28h0V36a.28.28,0,0,1,.28-.28H40a.28.28,0,0,1,.28.28h0v4.1Z"/></svg>